HIERARCHY
ROOT root
{
	OFFSET 0.000000 0.000000 0.000000
	CHANNELS 6 Xposition Yposition Zposition Zrotation Yrotation Xrotation
	JOINT lhip
	{
		OFFSET 0.058581 -0.082280 -0.017664
		CHANNELS 3 Zrotation Yrotation Xrotation
		JOINT lknee
		{
			OFFSET 0.043451 -0.386469 0.008037
			CHANNELS 3 Zrotation Yrotation Xrotation
			JOINT lankle
			{
				OFFSET -0.014790 -0.426874 -0.037428
				CHANNELS 3 Zrotation Yrotation Xrotation
				JOINT ltoe
				{
					OFFSET 0.041054 -0.060286 0.122042
					CHANNELS 3 Zrotation Yrotation Xrotation
					End Site
					{
						OFFSET 0.000000 0.000000 0.000000
					}
				}
			}
		}
	}
	JOINT rhip
	{
		OFFSET -0.060310 -0.090513 -0.013543
		CHANNELS 3 Zrotation Yrotation Xrotation
		JOINT rknee
		{
			OFFSET -0.043257 -0.383688 -0.004843
			CHANNELS 3 Zrotation Yrotation Xrotation
			JOINT rankle
			{
				OFFSET 0.019056 -0.420046 -0.034562
				CHANNELS 3 Zrotation Yrotation Xrotation
				JOINT rtoe
				{
					OFFSET -0.034840 -0.062106 0.130323
					CHANNELS 3 Zrotation Yrotation Xrotation
					End Site
					{
						OFFSET 0.000000 0.000000 0.000000
					}
				}
			}
		}
	}
	JOINT lowerback
	{
		OFFSET 0.004439 0.124404 -0.038385
		CHANNELS 3 Zrotation Yrotation Xrotation
		JOINT upperback
		{
			OFFSET 0.004488 0.137956 0.026820
			CHANNELS 3 Zrotation Yrotation Xrotation
			JOINT chest
			{
				OFFSET -0.002265 0.056032 0.002855
				CHANNELS 3 Zrotation Yrotation Xrotation
				JOINT lowerneck
				{
					OFFSET -0.013390 0.211636 -0.033468
					CHANNELS 3 Zrotation Yrotation Xrotation
					JOINT upperneck
					{
						OFFSET 0.010113 0.088937 0.050410
						CHANNELS 3 Zrotation Yrotation Xrotation
						End Site
						{
							OFFSET 0.000000 0.000000 0.000000
						}
					}
				}
				JOINT lclavicle
				{
					OFFSET 0.071702 0.114000 -0.018898
					CHANNELS 3 Zrotation Yrotation Xrotation
					JOINT lshoulder
					{
						OFFSET 0.122921 0.045205 -0.019046
						CHANNELS 3 Zrotation Yrotation Xrotation
						JOINT lelbow
						{
							OFFSET 0.255332 -0.015649 -0.022946
							CHANNELS 3 Zrotation Yrotation Xrotation
							JOINT lwrist
							{
								OFFSET 0.265709 0.012698 -0.007375
								CHANNELS 3 Zrotation Yrotation Xrotation
								End Site
								{
									OFFSET 0.000000 0.000000 0.000000
								}
							}
						}
					}
				}
				JOINT rclavicle
				{
					OFFSET -0.082954 0.112472 -0.023707
					CHANNELS 3 Zrotation Yrotation Xrotation
					JOINT rshoulder
					{
						OFFSET -0.113228 0.046853 -0.008472
						CHANNELS 3 Zrotation Yrotation Xrotation
						JOINT relbow
						{
							OFFSET -0.260127 -0.014369 -0.031269
							CHANNELS 3 Zrotation Yrotation Xrotation
							JOINT rwrist
							{
								OFFSET -0.269108 0.006794 -0.006027
								CHANNELS 3 Zrotation Yrotation Xrotation
								End Site
								{
									OFFSET 0.000000 0.000000 0.000000
								}
							}
						}
					}
				}
			}
		}
	}
}
MOTION
Frames: 10
Frame Time: 0.033333
1.964525 -0.100158 0.986151 -7.656003 -0.386568 90.847690 4.914139 -1.308699 -0.778977 -8.425467 -7.564209 -1.139664 3.424642 5.425819 -9.154875 0.000000 -0.000000 0.000000 -7.482312 -1.571989 -5.318315 8.793975 -1.431105 11.166454 0.807817 0.116119 -9.338261 0.000000 -0.000000 0.000000 0.297297 3.421514 -0.918973 -0.027208 -0.894492 4.805937 -1.093772 -0.694696 -5.749771 -0.266067 -2.851428 1.486845 3.092109 -8.639107 -1.527429 -29.426984 -2.696126 5.617059 -59.329912 -7.676141 6.922937 9.333764 -19.626023 -10.289833 -16.263257 -18.191353 -9.298131 27.643753 10.093868 8.859594 59.130147 8.216312 15.812324 -4.898493 22.308454 9.101918 14.166458 7.674601 4.459023 
1.964497 -0.100020 0.986172 -7.637075 -0.349712 90.811986 4.974104 -1.357488 -0.750401 -8.444983 -7.607226 -1.151837 3.352593 5.487215 -9.161251 0.000000 -0.000000 0.000000 -7.419436 -1.472639 -5.223274 8.809865 -1.256908 11.035533 0.976945 -0.184855 -9.299574 0.000000 -0.000000 0.000000 0.373255 3.374398 -0.839680 -0.117962 -0.841201 4.586081 -1.041370 -0.710484 -5.515827 -0.224402 -2.892046 1.201365 2.972783 -8.652843 -1.223548 -29.391547 -2.681261 5.627850 -59.378094 -7.805207 6.876514 9.307186 -19.569793 -10.264323 -16.198480 -18.237484 -9.523572 27.569098 10.086318 8.818863 59.203422 8.253457 15.884861 -4.940907 22.301503 9.105606 14.167201 7.675315 4.378446 
1.964472 -0.099835 0.986208 -7.647368 -0.334599 90.794131 4.996267 -1.357556 -0.751889 -8.445958 -7.622619 -1.141622 3.330912 5.510762 -9.163294 0.000000 -0.000000 0.000000 -7.388484 -1.439407 -5.211810 8.812564 -1.190748 11.008606 1.030334 -0.276888 -9.283235 0.000000 -0.000000 0.000000 0.409346 3.353407 -0.818806 -0.141299 -0.827943 4.532998 -1.032842 -0.716041 -5.456914 -0.213185 -2.919822 1.130089 2.927003 -8.656188 -1.126423 -29.391995 -2.691855 5.640759 -59.386210 -7.792736 6.958194 9.288632 -19.570808 -10.070007 -16.157838 -18.168337 -9.405040 27.543645 10.081818 8.793743 59.211672 8.255118 15.916009 -4.924203 22.317302 9.136082 14.152887 7.660507 4.356363 
1.964441 -0.099608 0.986237 -7.656485 -0.327664 90.778587 5.006751 -1.357818 -0.753443 -8.448480 -7.628988 -1.132521 3.319751 5.523449 -9.164017 0.000000 -0.000000 0.000000 -7.373796 -1.422093 -5.207188 8.814866 -1.157736 10.997697 1.059151 -0.323749 -9.273319 0.000000 -0.000000 0.000000 0.433234 3.340589 -0.810717 -0.155976 -0.820911 4.500589 -1.031675 -0.719238 -5.429565 -0.215197 -2.932150 1.097025 2.899103 -8.657551 -1.076765 -29.388551 -2.702174 5.649026 -59.385646 -7.785001 7.004242 9.276277 -19.577232 -9.966767 -16.128637 -18.133264 -9.347007 27.525748 10.079897 8.782406 59.215842 8.254392 15.933487 -4.910666 22.329642 9.153728 14.144113 7.654589 4.340830 
1.964413 -0.099490 0.986219 -7.660586 -0.324523 90.767977 5.015620 -1.357846 -0.753043 -8.448862 -7.632744 -1.126120 3.313484 5.530004 -9.164460 0.000000 -0.000000 0.000000 -7.365220 -1.413694 -5.202565 8.817040 -1.139710 10.992951 1.073666 -0.346826 -9.268315 0.000000 -0.000000 0.000000 0.446061 3.334746 -0.806106 -0.165192 -0.815919 4.482095 -1.032502 -0.720658 -5.415733 -0.220599 -2.937959 1.080436 2.881531 -8.656248 -1.051170 -29.387126 -2.708877 5.653049 -59.383019 -7.780874 7.027178 9.267952 -19.583531 -9.914388 -16.106465 -18.113680 -9.322363 27.516109 10.078060 8.777940 59.216993 8.252278 15.943315 -4.898665 22.338775 9.164716 14.138143 7.651482 4.330368 
1.964387 -0.099326 0.986195 -7.664720 -0.318070 90.751375 5.026246 -1.357933 -0.751870 -8.450746 -7.638259 -1.116291 3.305422 5.536247 -9.165462 0.000000 -0.000000 0.000000 -7.354833 -1.405157 -5.194601 8.818340 -1.117130 10.986669 1.090839 -0.374517 -9.262541 0.000000 -0.000000 0.000000 0.461325 3.327615 -0.800685 -0.174838 -0.811625 4.460429 -1.031076 -0.727053 -5.396764 -0.230263 -2.942627 1.061266 2.857498 -8.651799 -1.021273 -29.384909 -2.718421 5.661504 -59.383024 -7.773468 7.058454 9.252875 -19.592290 -9.842409 -16.072398 -18.086091 -9.289954 27.504389 10.073925 8.772992 59.218711 8.248972 15.954651 -4.882652 22.349855 9.177370 14.128276 7.647924 4.316584 
1.964418 -0.099160 0.986219 -7.672434 -0.308470 90.733425 5.037122 -1.356694 -0.751099 -8.455227 -7.643476 -1.104012 3.297058 5.543817 -9.167655 0.000000 -0.000000 0.000000 -7.342933 -1.394284 -5.188122 8.820522 -1.090349 10.979823 1.113655 -0.406597 -9.254200 0.000000 -0.000000 0.000000 0.484966 3.317276 -0.789894 -0.183376 -0.808077 4.434272 -1.027262 -0.736515 -5.373037 -0.243578 -2.945051 1.039179 2.827763 -8.643440 -0.986372 -29.381123 -2.727477 5.674136 -59.387989 -7.762454 7.098295 9.233048 -19.602805 -9.748279 -16.026282 -18.050375 -9.249149 27.485996 10.069669 8.765250 59.220101 8.249107 15.965511 -4.869747 22.359838 9.188750 14.112412 7.642621 4.297352 
1.964459 -0.098984 0.986220 -7.679322 -0.286635 90.706977 5.062762 -1.350449 -0.750006 -8.460678 -7.656249 -1.076949 3.282058 5.557786 -9.175601 0.000000 -0.000000 0.000000 -7.314374 -1.375205 -5.172950 8.825584 -1.038575 10.971843 1.154410 -0.463882 -9.240136 0.000000 -0.000000 0.000000 0.528778 3.298784 -0.759235 -0.196490 -0.801851 4.384411 -1.016566 -0.752268 -5.329617 -0.265515 -2.949909 0.998598 2.771684 -8.620235 -0.924658 -29.380907 -2.743045 5.696442 -59.391367 -7.732200 7.182759 9.197717 -19.630444 -9.536674 -15.928337 -17.962203 -9.146479 27.453781 10.063291 8.746236 59.228509 8.253203 15.987890 -4.843672 22.381977 9.215559 14.081854 7.628101 4.255568 
1.964490 -0.098784 0.986240 -7.683218 -0.278137 90.693806 5.068105 -1.350385 -0.754323 -8.462228 -7.659206 -1.062168 3.276965 5.562871 -9.180090 0.000000 -0.000000 0.000000 -7.303768 -1.367569 -5.171622 8.827114 -1.022997 10.972425 1.166997 -0.481768 -9.234887 0.000000 -0.000000 0.000000 0.544820 3.288412 -0.745969 -0.199543 -0.804328 4.369848 -1.011749 -0.760743 -5.313407 -0.272040 -2.951099 0.985796 2.755287 -8.611830 -0.907641 -29.378492 -2.748379 5.703631 -59.392617 -7.723302 7.207325 9.184873 -19.638407 -9.479079 -15.891776 -17.936879 -9.123465 27.441895 10.060740 8.738652 59.234401 8.255304 15.993479 -4.838528 22.387689 9.218157 14.071530 7.625446 4.241775 
1.964531 -0.098574 0.986321 -7.692330 -0.267819 90.674510 5.073195 -1.352702 -0.769387 -8.465102 -7.661818 -1.024713 3.269289 5.572482 -9.192234 0.000000 -0.000000 0.000000 -7.287749 -1.354924 -5.173879 8.826152 -1.000412 10.976599 1.186427 -0.512448 -9.227078 0.000000 -0.000000 0.000000 0.573343 3.268108 -0.715285 -0.204498 -0.812710 4.346317 -1.005047 -0.773675 -5.285413 -0.281985 -2.956583 0.963368 2.734404 -8.599309 -0.885581 -29.368023 -2.756207 5.712403 -59.401948 -7.710744 7.243991 9.166055 -19.649825 -9.394844 -15.830653 -17.896724 -9.094951 27.420976 10.060246 8.723539 59.251060 8.261186 16.000844 -4.836975 22.394839 9.216485 14.051268 7.621583 4.220346 
